<svg class="" width="16" height="16" viewBox="0 0 16 16" fill="lch(37.976% 1 282.863 / 1)" role="img" focusable="false" aria-hidden="true" xmlns="http://www.w3.org/2000/svg" style="--icon-color: lch(37.976% 1 282.863 / 1);"><path fill-rule="evenodd" clip-rule="evenodd" d="M13.25 5.25C14.2165 5.25 15 6.0335 15 7V11.75C15 13.5449 13.5449 15 11.75 15H6.75C5.7835 15 5 14.2165 5 13.25C5 12.8358 5.33579 12.5 5.75 12.5C6.16421 12.5 6.5 12.8358 6.5 13.25C6.5 13.3881 6.61193 13.5 6.75 13.5H11.75C12.7165 13.5 13.5 12.7165 13.5 11.75V7C13.5 6.86193 13.3881 6.75 13.25 6.75C12.8358 6.75 12.5 6.41421 12.5 6C12.5 5.58579 12.8358 5.25 13.25 5.25Z"></path><path fill-rule="evenodd" clip-rule="evenodd" d="M8.1543 1.00391C9.73945 1.08421 11 2.39489 11 4V8L10.9961 8.1543C10.9184 9.68834 9.68834 10.9184 8.1543 10.9961L8 11H4L3.8457 10.9961C2.31166 10.9184 1.08163 9.68834 1.00391 8.1543L1 8V4C1 2.39489 2.26055 1.08421 3.8457 1.00391L4 1H8L8.1543 1.00391ZM4 2.5C3.17157 2.5 2.5 3.17157 2.5 4V8C2.5 8.82843 3.17157 9.5 4 9.5H8C8.82843 9.5 9.5 8.82843 9.5 8V4C9.5 3.17157 8.82843 2.5 8 2.5H4Z"></path></svg>
