<svg width="16" height="16" fill="lch(38.893% 1 282.863 / 1)" stroke="lch(64.173% 1 282.863 / 1)" viewBox="0 0 16 16" aria-hidden="true" class="sc-aRnoo fGUaSd" style="overflow: visible;"><circle cx="8" cy="8" r="6.25" fill="none" stroke-width="1.5" stroke-dasharray="27.48893571891069px 11.780972450961725px" stroke-dashoffset="28.667032964006864px" style="stroke-linecap: round;"></circle><path fill="lch(64.173% 1 282.863 / 1)" stroke="none" d="M6.95588 5.28329L10.6901 7.43926C11.0235 7.63171 11.0235 8.11283 10.6901 8.30528L6.95588 10.4612C6.62255 10.6537 6.20588 10.4131 6.20588 10.0282L6.20588 5.71631C6.20588 5.33141 6.62255 5.09084 6.95588 5.28329Z"></path><path d="M13.7267 9.19449C14.0115 8.89373 14.4865 8.88038 14.7872 9.16519C15.0878 9.45003 15.1003 9.92505 14.8155 10.2257L10.9825 14.2736C10.8387 14.4253 10.6379 14.5096 10.4288 14.507C10.2196 14.5043 10.021 14.4145 9.88096 14.2589L8.28233 12.4836C8.00532 12.1757 8.03026 11.7011 8.33799 11.424C8.64589 11.1469 9.1205 11.1718 9.39756 11.4796L10.4523 12.6515L13.7267 9.19449Z" stroke="none"></path></svg>
