<svg class="sc-etyXMi hUeHJq" width="16" height="16" viewBox="0 0 16 16" fill="lch(38.893% 1 282.863 / 1)" role="img" focusable="false" aria-hidden="true" xmlns="http://www.w3.org/2000/svg" style="--icon-color: lch(38.893% 1 282.863 / 1);"><path d="M4.25 1C5.49264 1 6.5 2.00736 6.5 3.25C6.5 4.22956 5.87374 5.06311 5 5.37207V10.6279C5.87367 10.9369 6.5 11.7705 6.5 12.75C6.5 13.9926 5.49264 15 4.25 15C3.00736 15 2 13.9926 2 12.75C2 11.7703 2.62609 10.9368 3.5 10.6279V5.37207C2.62609 5.0632 2 4.22968 2 3.25C2 2.00736 3.00736 1 4.25 1ZM11.75 10.5C12.9926 10.5 14 11.5074 14 12.75C14 13.9926 12.9926 15 11.75 15C10.5074 15 9.5 13.9926 9.5 12.75C9.5 11.5074 10.5074 10.5 11.75 10.5ZM4.25 12C3.83579 12 3.5 12.3358 3.5 12.75C3.5 13.1642 3.83579 13.5 4.25 13.5C4.66421 13.5 5 13.1642 5 12.75C5 12.3358 4.66421 12 4.25 12ZM11.75 12C11.3358 12 11 12.3358 11 12.75C11 13.1642 11.3358 13.5 11.75 13.5C12.1642 13.5 12.5 13.1642 12.5 12.75C12.5 12.3358 12.1642 12 11.75 12ZM11.75 6C12.5784 6 13.25 6.67157 13.25 7.5C13.25 8.32843 12.5784 9 11.75 9C10.9216 9 10.25 8.32843 10.25 7.5C10.25 6.67157 10.9216 6 11.75 6ZM11.75 1.5C12.5784 1.5 13.25 2.17157 13.25 3C13.25 3.82843 12.5784 4.5 11.75 4.5C10.9216 4.5 10.25 3.82843 10.25 3C10.25 2.17157 10.9216 1.5 11.75 1.5ZM4.25 2.5C3.83579 2.5 3.5 2.83579 3.5 3.25C3.5 3.66421 3.83579 4 4.25 4C4.66421 4 5 3.66421 5 3.25C5 2.83579 4.66421 2.5 4.25 2.5Z"></path></svg>
